<?xml version="1.0" encoding="UTF-8" standalone="no"?>
<!DOCTYPE svg PUBLIC "-//W3C//DTD SVG 1.1//EN"
 "http://www.w3.org/Graphics/SVG/1.1/DTD/svg11.dtd">
<!-- Generated by graphviz version 5.0.0 (20220707.1540)
 -->
<!-- Title: dependencies Pages: 1 -->
<svg width="928pt" height="247pt"
 viewBox="0.00 0.00 928.00 246.80" xmlns="http://www.w3.org/2000/svg" xmlns:xlink="http://www.w3.org/1999/xlink">
<g id="graph0" class="graph" transform="scale(1 1) rotate(0) translate(4 242.8)">
<title>dependencies</title>
<polygon fill="white" stroke="transparent" points="-4,4 -4,-242.8 924,-242.8 924,4 -4,4"/>
<text text-anchor="middle" x="460" y="-8.2" font-family="sans-serif" font-size="14.00">dependencies</text>
<g id="clust1" class="cluster">
<title>cluster_CoreModule</title>
<polygon fill="none" stroke="black" stroke-dasharray="1,5" points="8,-32.8 8,-230.8 912,-230.8 912,-32.8 8,-32.8"/>
</g>
<g id="clust8" class="cluster">
<title>cluster_CoreModule_exports</title>
<polygon fill="none" stroke="black" points="16,-170.8 16,-222.8 904,-222.8 904,-170.8 16,-170.8"/>
</g>
<g id="clust7" class="cluster">
<title>cluster_CoreModule_imports</title>
<polygon fill="none" stroke="black" points="676,-40.8 676,-92.8 818,-92.8 818,-40.8 676,-40.8"/>
</g>
<g id="clust2" class="cluster">
<title>cluster_CoreModule_declarations</title>
<polygon fill="none" stroke="black" points="94,-40.8 94,-92.8 668,-92.8 668,-40.8 94,-40.8"/>
</g>
<!-- FooterComponent -->
<g id="node1" class="node">
<title>FooterComponent</title>
<polygon fill="#ffffb3" stroke="black" points="659.88,-84.8 542.12,-84.8 542.12,-48.8 659.88,-48.8 659.88,-84.8"/>
<text text-anchor="middle" x="601" y="-62.6" font-family="Times,serif" font-size="14.00">FooterComponent</text>
</g>
<!-- CoreModule -->
<g id="node5" class="node">
<title>CoreModule</title>
<polygon fill="#8dd3c7" stroke="black" points="487.27,-149.8 484.27,-153.8 463.27,-153.8 460.27,-149.8 400.73,-149.8 400.73,-113.8 487.27,-113.8 487.27,-149.8"/>
<text text-anchor="middle" x="444" y="-127.6" font-family="Times,serif" font-size="14.00">CoreModule</text>
</g>
<!-- FooterComponent&#45;&gt;CoreModule -->
<g id="edge1" class="edge">
<title>FooterComponent&#45;&gt;CoreModule</title>
<path fill="none" stroke="black" d="M577.87,-85.04C577.87,-100.37 577.87,-119.8 577.87,-119.8 577.87,-119.8 497.46,-119.8 497.46,-119.8"/>
<polygon fill="black" stroke="black" points="497.46,-116.3 487.46,-119.8 497.46,-123.3 497.46,-116.3"/>
</g>
<!-- FormMessageComponent -->
<g id="node2" class="node">
<title>FormMessageComponent</title>
<polygon fill="#ffffb3" stroke="black" points="524.16,-84.8 363.84,-84.8 363.84,-48.8 524.16,-48.8 524.16,-84.8"/>
<text text-anchor="middle" x="444" y="-62.6" font-family="Times,serif" font-size="14.00">FormMessageComponent</text>
</g>
<!-- FormMessageComponent&#45;&gt;CoreModule -->
<g id="edge2" class="edge">
<title>FormMessageComponent&#45;&gt;CoreModule</title>
<path fill="none" stroke="black" d="M444,-84.91C444,-84.91 444,-103.79 444,-103.79"/>
<polygon fill="black" stroke="black" points="440.5,-103.79 444,-113.79 447.5,-103.79 440.5,-103.79"/>
</g>
<!-- HeaderComponent -->
<g id="node3" class="node">
<title>HeaderComponent</title>
<polygon fill="#ffffb3" stroke="black" points="345.75,-84.8 224.25,-84.8 224.25,-48.8 345.75,-48.8 345.75,-84.8"/>
<text text-anchor="middle" x="285" y="-62.6" font-family="Times,serif" font-size="14.00">HeaderComponent</text>
</g>
<!-- HeaderComponent&#45;&gt;CoreModule -->
<g id="edge3" class="edge">
<title>HeaderComponent&#45;&gt;CoreModule</title>
<path fill="none" stroke="black" d="M302.4,-85.04C302.4,-100.37 302.4,-119.8 302.4,-119.8 302.4,-119.8 390.36,-119.8 390.36,-119.8"/>
<polygon fill="black" stroke="black" points="390.36,-123.3 400.36,-119.8 390.36,-116.3 390.36,-123.3"/>
</g>
<!-- NavComponent -->
<g id="node4" class="node">
<title>NavComponent</title>
<polygon fill="#ffffb3" stroke="black" points="206.16,-84.8 101.84,-84.8 101.84,-48.8 206.16,-48.8 206.16,-84.8"/>
<text text-anchor="middle" x="154" y="-62.6" font-family="Times,serif" font-size="14.00">NavComponent</text>
</g>
<!-- NavComponent&#45;&gt;CoreModule -->
<g id="edge4" class="edge">
<title>NavComponent&#45;&gt;CoreModule</title>
<path fill="none" stroke="black" d="M162.82,-84.82C162.82,-102.17 162.82,-125.8 162.82,-125.8 162.82,-125.8 390.68,-125.8 390.68,-125.8"/>
<polygon fill="black" stroke="black" points="390.68,-129.3 400.68,-125.8 390.68,-122.3 390.68,-129.3"/>
</g>
<!-- FooterComponent  -->
<g id="node7" class="node">
<title>FooterComponent </title>
<polygon fill="#fb8072" stroke="black" points="895.88,-214.8 774.12,-214.8 774.12,-178.8 895.88,-178.8 895.88,-214.8"/>
<text text-anchor="middle" x="835" y="-192.6" font-family="Times,serif" font-size="14.00">FooterComponent </text>
</g>
<!-- CoreModule&#45;&gt;FooterComponent  -->
<g id="edge6" class="edge">
<title>CoreModule&#45;&gt;FooterComponent </title>
<path fill="none" stroke="black" stroke-dasharray="5,2" d="M487.4,-131.8C580.76,-131.8 792.26,-131.8 792.26,-131.8 792.26,-131.8 792.26,-168.69 792.26,-168.69"/>
<polygon fill="black" stroke="black" points="788.76,-168.69 792.26,-178.69 795.76,-168.69 788.76,-168.69"/>
</g>
<!-- HeaderComponent  -->
<g id="node8" class="node">
<title>HeaderComponent </title>
<polygon fill="#fb8072" stroke="black" points="756.75,-214.8 631.25,-214.8 631.25,-178.8 756.75,-178.8 756.75,-214.8"/>
<text text-anchor="middle" x="694" y="-192.6" font-family="Times,serif" font-size="14.00">HeaderComponent </text>
</g>
<!-- CoreModule&#45;&gt;HeaderComponent  -->
<g id="edge7" class="edge">
<title>CoreModule&#45;&gt;HeaderComponent </title>
<path fill="none" stroke="black" stroke-dasharray="5,2" d="M487.76,-137.8C547.07,-137.8 645.66,-137.8 645.66,-137.8 645.66,-137.8 645.66,-168.78 645.66,-168.78"/>
<polygon fill="black" stroke="black" points="642.16,-168.78 645.66,-178.78 649.16,-168.78 642.16,-168.78"/>
</g>
<!-- IconsModule  -->
<g id="node9" class="node">
<title>IconsModule </title>
<polygon fill="#fb8072" stroke="black" points="613.88,-214.8 520.12,-214.8 520.12,-178.8 613.88,-178.8 613.88,-214.8"/>
<text text-anchor="middle" x="567" y="-192.6" font-family="Times,serif" font-size="14.00">IconsModule </text>
</g>
<!-- CoreModule&#45;&gt;IconsModule  -->
<g id="edge8" class="edge">
<title>CoreModule&#45;&gt;IconsModule </title>
<path fill="none" stroke="black" stroke-dasharray="5,2" d="M487.29,-143.8C510.02,-143.8 533.19,-143.8 533.19,-143.8 533.19,-143.8 533.19,-168.56 533.19,-168.56"/>
<polygon fill="black" stroke="black" points="529.69,-168.56 533.19,-178.56 536.69,-168.56 529.69,-168.56"/>
</g>
<!-- MessagesModule  -->
<g id="node10" class="node">
<title>MessagesModule </title>
<polygon fill="#fb8072" stroke="black" points="502.99,-214.8 385.01,-214.8 385.01,-178.8 502.99,-178.8 502.99,-214.8"/>
<text text-anchor="middle" x="444" y="-192.6" font-family="Times,serif" font-size="14.00">MessagesModule </text>
</g>
<!-- CoreModule&#45;&gt;MessagesModule  -->
<g id="edge9" class="edge">
<title>CoreModule&#45;&gt;MessagesModule </title>
<path fill="none" stroke="black" stroke-dasharray="5,2" d="M444,-149.91C444,-149.91 444,-168.79 444,-168.79"/>
<polygon fill="black" stroke="black" points="440.5,-168.79 444,-178.79 447.5,-168.79 440.5,-168.79"/>
</g>
<!-- NavComponent  -->
<g id="node11" class="node">
<title>NavComponent </title>
<polygon fill="#fb8072" stroke="black" points="367.16,-214.8 258.84,-214.8 258.84,-178.8 367.16,-178.8 367.16,-214.8"/>
<text text-anchor="middle" x="313" y="-192.6" font-family="Times,serif" font-size="14.00">NavComponent </text>
</g>
<!-- CoreModule&#45;&gt;NavComponent  -->
<g id="edge10" class="edge">
<title>CoreModule&#45;&gt;NavComponent </title>
<path fill="none" stroke="black" stroke-dasharray="5,2" d="M400.69,-143.8C377.96,-143.8 354.77,-143.8 354.77,-143.8 354.77,-143.8 354.77,-168.56 354.77,-168.56"/>
<polygon fill="black" stroke="black" points="351.27,-168.56 354.77,-178.56 358.27,-168.56 351.27,-168.56"/>
</g>
<!-- TemplatesModule  -->
<g id="node12" class="node">
<title>TemplatesModule </title>
<polygon fill="#fb8072" stroke="black" points="240.86,-214.8 119.14,-214.8 119.14,-178.8 240.86,-178.8 240.86,-214.8"/>
<text text-anchor="middle" x="180" y="-192.6" font-family="Times,serif" font-size="14.00">TemplatesModule </text>
</g>
<!-- CoreModule&#45;&gt;TemplatesModule  -->
<g id="edge11" class="edge">
<title>CoreModule&#45;&gt;TemplatesModule </title>
<path fill="none" stroke="black" stroke-dasharray="5,2" d="M400.67,-137.8C338.76,-137.8 232.4,-137.8 232.4,-137.8 232.4,-137.8 232.4,-168.78 232.4,-168.78"/>
<polygon fill="black" stroke="black" points="228.9,-168.78 232.4,-178.78 235.9,-168.78 228.9,-168.78"/>
</g>
<!-- UiModule  -->
<g id="node13" class="node">
<title>UiModule </title>
<polygon fill="#fb8072" stroke="black" points="101.55,-214.8 24.45,-214.8 24.45,-178.8 101.55,-178.8 101.55,-214.8"/>
<text text-anchor="middle" x="63" y="-192.6" font-family="Times,serif" font-size="14.00">UiModule </text>
</g>
<!-- CoreModule&#45;&gt;UiModule  -->
<g id="edge12" class="edge">
<title>CoreModule&#45;&gt;UiModule </title>
<path fill="none" stroke="black" stroke-dasharray="5,2" d="M400.67,-131.8C300.81,-131.8 63,-131.8 63,-131.8 63,-131.8 63,-168.69 63,-168.69"/>
<polygon fill="black" stroke="black" points="59.5,-168.69 63,-178.69 66.5,-168.69 59.5,-168.69"/>
</g>
<!-- TchatroomsModule -->
<g id="node6" class="node">
<title>TchatroomsModule</title>
<polygon fill="#8dd3c7" stroke="black" points="810.42,-84.8 807.42,-88.8 786.42,-88.8 783.42,-84.8 683.58,-84.8 683.58,-48.8 810.42,-48.8 810.42,-84.8"/>
<text text-anchor="middle" x="747" y="-62.6" font-family="Times,serif" font-size="14.00">TchatroomsModule</text>
</g>
<!-- TchatroomsModule&#45;&gt;CoreModule -->
<g id="edge5" class="edge">
<title>TchatroomsModule&#45;&gt;CoreModule</title>
<path fill="none" stroke="black" d="M720.21,-84.82C720.21,-102.17 720.21,-125.8 720.21,-125.8 720.21,-125.8 497.46,-125.8 497.46,-125.8"/>
<polygon fill="black" stroke="black" points="497.46,-122.3 487.46,-125.8 497.46,-129.3 497.46,-122.3"/>
</g>
</g>
</svg>
