<?xml version="1.0" encoding="UTF-8" standalone="no"?>
<!DOCTYPE svg PUBLIC "-//W3C//DTD SVG 1.1//EN"
 "http://www.w3.org/Graphics/SVG/1.1/DTD/svg11.dtd">
<!-- Generated by graphviz version 5.0.0 (20220707.1540)
 -->
<!-- Title: dependencies Pages: 1 -->
<svg width="580pt" height="247pt"
 viewBox="0.00 0.00 580.00 246.80" xmlns="http://www.w3.org/2000/svg" xmlns:xlink="http://www.w3.org/1999/xlink">
<g id="graph0" class="graph" transform="scale(1 1) rotate(0) translate(4 242.8)">
<title>dependencies</title>
<polygon fill="white" stroke="transparent" points="-4,4 -4,-242.8 576,-242.8 576,4 -4,4"/>
<text text-anchor="middle" x="286" y="-8.2" font-family="sans-serif" font-size="14.00">dependencies</text>
<g id="clust1" class="cluster">
<title>cluster_AppModule</title>
<polygon fill="none" stroke="black" stroke-dasharray="1,5" points="8,-32.8 8,-230.8 564,-230.8 564,-32.8 8,-32.8"/>
</g>
<g id="clust7" class="cluster">
<title>cluster_AppModule_bootstrap</title>
<polygon fill="none" stroke="black" points="236,-170.8 236,-222.8 360,-222.8 360,-170.8 236,-170.8"/>
</g>
<g id="clust5" class="cluster">
<title>cluster_AppModule_imports</title>
<polygon fill="none" stroke="black" points="307,-40.8 307,-92.8 556,-92.8 556,-40.8 307,-40.8"/>
</g>
<g id="clust2" class="cluster">
<title>cluster_AppModule_declarations</title>
<polygon fill="none" stroke="black" points="16,-40.8 16,-92.8 299,-92.8 299,-40.8 16,-40.8"/>
</g>
<!-- AppComponent -->
<g id="node1" class="node">
<title>AppComponent</title>
<polygon fill="#ffffb3" stroke="black" points="290.94,-84.8 185.06,-84.8 185.06,-48.8 290.94,-48.8 290.94,-84.8"/>
<text text-anchor="middle" x="238" y="-62.6" font-family="Times,serif" font-size="14.00">AppComponent</text>
</g>
<!-- AppModule -->
<g id="node3" class="node">
<title>AppModule</title>
<polygon fill="#8dd3c7" stroke="black" points="339.66,-149.8 336.66,-153.8 315.66,-153.8 312.66,-149.8 256.34,-149.8 256.34,-113.8 339.66,-113.8 339.66,-149.8"/>
<text text-anchor="middle" x="298" y="-127.6" font-family="Times,serif" font-size="14.00">AppModule</text>
</g>
<!-- AppComponent&#45;&gt;AppModule -->
<g id="edge1" class="edge">
<title>AppComponent&#45;&gt;AppModule</title>
<path fill="none" stroke="black" d="M273.44,-84.91C273.44,-84.91 273.44,-103.79 273.44,-103.79"/>
<polygon fill="black" stroke="black" points="269.94,-103.79 273.44,-113.79 276.94,-103.79 269.94,-103.79"/>
</g>
<!-- TableLightComponent -->
<g id="node2" class="node">
<title>TableLightComponent</title>
<polygon fill="#ffffb3" stroke="black" points="167.53,-84.8 24.47,-84.8 24.47,-48.8 167.53,-48.8 167.53,-84.8"/>
<text text-anchor="middle" x="96" y="-62.6" font-family="Times,serif" font-size="14.00">TableLightComponent</text>
</g>
<!-- TableLightComponent&#45;&gt;AppModule -->
<g id="edge2" class="edge">
<title>TableLightComponent&#45;&gt;AppModule</title>
<path fill="none" stroke="black" d="M96,-84.91C96,-104.14 96,-131.8 96,-131.8 96,-131.8 246.15,-131.8 246.15,-131.8"/>
<polygon fill="black" stroke="black" points="246.15,-135.3 256.15,-131.8 246.15,-128.3 246.15,-135.3"/>
</g>
<!-- AppComponent  -->
<g id="node6" class="node">
<title>AppComponent </title>
<polygon fill="#80b1d3" stroke="black" points="352.44,-214.8 243.56,-214.8 243.56,-178.8 352.44,-178.8 352.44,-214.8"/>
<text text-anchor="middle" x="298" y="-192.6" font-family="Times,serif" font-size="14.00">AppComponent </text>
</g>
<!-- AppModule&#45;&gt;AppComponent  -->
<g id="edge5" class="edge">
<title>AppModule&#45;&gt;AppComponent </title>
<path fill="none" stroke="black" stroke-dasharray="1,5" d="M298,-149.91C298,-149.91 298,-168.79 298,-168.79"/>
<polygon fill="black" stroke="black" points="294.5,-168.79 298,-178.79 301.5,-168.79 294.5,-168.79"/>
</g>
<!-- AppRoutingModule -->
<g id="node4" class="node">
<title>AppRoutingModule</title>
<polygon fill="#8dd3c7" stroke="black" points="548.28,-84.8 545.28,-88.8 524.28,-88.8 521.28,-84.8 419.72,-84.8 419.72,-48.8 548.28,-48.8 548.28,-84.8"/>
<text text-anchor="middle" x="484" y="-62.6" font-family="Times,serif" font-size="14.00">AppRoutingModule</text>
</g>
<!-- AppRoutingModule&#45;&gt;AppModule -->
<g id="edge3" class="edge">
<title>AppRoutingModule&#45;&gt;AppModule</title>
<path fill="none" stroke="black" d="M484,-84.91C484,-104.14 484,-131.8 484,-131.8 484,-131.8 349.74,-131.8 349.74,-131.8"/>
<polygon fill="black" stroke="black" points="349.74,-128.3 339.74,-131.8 349.74,-135.3 349.74,-128.3"/>
</g>
<!-- CoreModule -->
<g id="node5" class="node">
<title>CoreModule</title>
<polygon fill="#8dd3c7" stroke="black" points="401.27,-84.8 398.27,-88.8 377.27,-88.8 374.27,-84.8 314.73,-84.8 314.73,-48.8 401.27,-48.8 401.27,-84.8"/>
<text text-anchor="middle" x="358" y="-62.6" font-family="Times,serif" font-size="14.00">CoreModule</text>
</g>
<!-- CoreModule&#45;&gt;AppModule -->
<g id="edge4" class="edge">
<title>CoreModule&#45;&gt;AppModule</title>
<path fill="none" stroke="black" d="M327.22,-84.91C327.22,-84.91 327.22,-103.79 327.22,-103.79"/>
<polygon fill="black" stroke="black" points="323.72,-103.79 327.22,-113.79 330.72,-103.79 323.72,-103.79"/>
</g>
</g>
</svg>
