<?xml version="1.0" encoding="UTF-8" standalone="no"?>
<!DOCTYPE svg PUBLIC "-//W3C//DTD SVG 1.1//EN"
 "http://www.w3.org/Graphics/SVG/1.1/DTD/svg11.dtd">
<!-- Generated by graphviz version 5.0.0 (20220707.1540)
 -->
<!-- Title: dependencies Pages: 1 -->
<svg width="424pt" height="247pt"
 viewBox="0.00 0.00 424.00 246.80" xmlns="http://www.w3.org/2000/svg" xmlns:xlink="http://www.w3.org/1999/xlink">
<g id="graph0" class="graph" transform="scale(1 1) rotate(0) translate(4 242.8)">
<title>dependencies</title>
<polygon fill="white" stroke="transparent" points="-4,4 -4,-242.8 420,-242.8 420,4 -4,4"/>
<text text-anchor="middle" x="208" y="-8.2" font-family="sans-serif" font-size="14.00">dependencies</text>
<g id="clust1" class="cluster">
<title>cluster_MessagesModule</title>
<polygon fill="none" stroke="black" stroke-dasharray="1,5" points="8,-32.8 8,-230.8 408,-230.8 408,-32.8 8,-32.8"/>
</g>
<g id="clust2" class="cluster">
<title>cluster_MessagesModule_declarations</title>
<polygon fill="none" stroke="black" points="200,-40.8 200,-92.8 400,-92.8 400,-40.8 200,-40.8"/>
</g>
<g id="clust4" class="cluster">
<title>cluster_MessagesModule_imports</title>
<polygon fill="none" stroke="black" points="16,-40.8 16,-92.8 192,-92.8 192,-40.8 16,-40.8"/>
</g>
<g id="clust5" class="cluster">
<title>cluster_MessagesModule_exports</title>
<polygon fill="none" stroke="black" points="106,-170.8 106,-222.8 310,-222.8 310,-170.8 106,-170.8"/>
</g>
<!-- PageListMessagesComponent -->
<g id="node1" class="node">
<title>PageListMessagesComponent</title>
<polygon fill="#ffffb3" stroke="black" points="392.26,-84.8 207.74,-84.8 207.74,-48.8 392.26,-48.8 392.26,-84.8"/>
<text text-anchor="middle" x="300" y="-62.6" font-family="Times,serif" font-size="14.00">PageListMessagesComponent</text>
</g>
<!-- MessagesModule -->
<g id="node2" class="node">
<title>MessagesModule</title>
<polygon fill="#8dd3c7" stroke="black" points="264.99,-149.8 261.99,-153.8 240.99,-153.8 237.99,-149.8 151.01,-149.8 151.01,-113.8 264.99,-113.8 264.99,-149.8"/>
<text text-anchor="middle" x="208" y="-127.6" font-family="Times,serif" font-size="14.00">MessagesModule</text>
</g>
<!-- PageListMessagesComponent&#45;&gt;MessagesModule -->
<g id="edge1" class="edge">
<title>PageListMessagesComponent&#45;&gt;MessagesModule</title>
<path fill="none" stroke="black" d="M236.31,-84.91C236.31,-84.91 236.31,-103.79 236.31,-103.79"/>
<polygon fill="black" stroke="black" points="232.81,-103.79 236.31,-113.79 239.81,-103.79 232.81,-103.79"/>
</g>
<!-- PageListMessagesComponent  -->
<g id="node4" class="node">
<title>PageListMessagesComponent </title>
<polygon fill="#fb8072" stroke="black" points="302.26,-214.8 113.74,-214.8 113.74,-178.8 302.26,-178.8 302.26,-214.8"/>
<text text-anchor="middle" x="208" y="-192.6" font-family="Times,serif" font-size="14.00">PageListMessagesComponent </text>
</g>
<!-- MessagesModule&#45;&gt;PageListMessagesComponent  -->
<g id="edge3" class="edge">
<title>MessagesModule&#45;&gt;PageListMessagesComponent </title>
<path fill="none" stroke="black" stroke-dasharray="5,2" d="M208,-149.91C208,-149.91 208,-168.79 208,-168.79"/>
<polygon fill="black" stroke="black" points="204.5,-168.79 208,-178.79 211.5,-168.79 204.5,-168.79"/>
</g>
<!-- MessagesRoutingModule -->
<g id="node3" class="node">
<title>MessagesRoutingModule</title>
<polygon fill="#8dd3c7" stroke="black" points="183.6,-84.8 180.6,-88.8 159.6,-88.8 156.6,-84.8 24.4,-84.8 24.4,-48.8 183.6,-48.8 183.6,-84.8"/>
<text text-anchor="middle" x="104" y="-62.6" font-family="Times,serif" font-size="14.00">MessagesRoutingModule</text>
</g>
<!-- MessagesRoutingModule&#45;&gt;MessagesModule -->
<g id="edge2" class="edge">
<title>MessagesRoutingModule&#45;&gt;MessagesModule</title>
<path fill="none" stroke="black" d="M167.28,-84.91C167.28,-84.91 167.28,-103.79 167.28,-103.79"/>
<polygon fill="black" stroke="black" points="163.78,-103.79 167.28,-113.79 170.78,-103.79 163.78,-103.79"/>
</g>
</g>
</svg>
