<?xml version="1.0" encoding="UTF-8" standalone="no"?>
<!DOCTYPE svg PUBLIC "-//W3C//DTD SVG 1.1//EN"
 "http://www.w3.org/Graphics/SVG/1.1/DTD/svg11.dtd">
<!-- Generated by graphviz version 5.0.0 (20220707.1540)
 -->
<!-- Title: dependencies Pages: 1 -->
<svg width="656pt" height="247pt"
 viewBox="0.00 0.00 656.00 246.80" xmlns="http://www.w3.org/2000/svg" xmlns:xlink="http://www.w3.org/1999/xlink">
<g id="graph0" class="graph" transform="scale(1 1) rotate(0) translate(4 242.8)">
<title>dependencies</title>
<polygon fill="white" stroke="transparent" points="-4,4 -4,-242.8 652,-242.8 652,4 -4,4"/>
<text text-anchor="middle" x="324" y="-8.2" font-family="sans-serif" font-size="14.00">dependencies</text>
<g id="clust1" class="cluster">
<title>cluster_TchatroomsModule</title>
<polygon fill="none" stroke="black" stroke-dasharray="1,5" points="8,-32.8 8,-230.8 640,-230.8 640,-32.8 8,-32.8"/>
</g>
<g id="clust2" class="cluster">
<title>cluster_TchatroomsModule_declarations</title>
<polygon fill="none" stroke="black" points="16,-40.8 16,-92.8 632,-92.8 632,-40.8 16,-40.8"/>
</g>
<g id="clust7" class="cluster">
<title>cluster_TchatroomsModule_exports</title>
<polygon fill="none" stroke="black" points="111,-170.8 111,-222.8 538,-222.8 538,-170.8 111,-170.8"/>
</g>
<!-- FormTchatroomsComponent -->
<g id="node1" class="node">
<title>FormTchatroomsComponent</title>
<polygon fill="#ffffb3" stroke="black" points="624.04,-84.8 445.96,-84.8 445.96,-48.8 624.04,-48.8 624.04,-84.8"/>
<text text-anchor="middle" x="535" y="-62.6" font-family="Times,serif" font-size="14.00">FormTchatroomsComponent</text>
</g>
<!-- TchatroomsModule -->
<g id="node4" class="node">
<title>TchatroomsModule</title>
<polygon fill="#8dd3c7" stroke="black" points="394.42,-149.8 391.42,-153.8 370.42,-153.8 367.42,-149.8 267.58,-149.8 267.58,-113.8 394.42,-113.8 394.42,-149.8"/>
<text text-anchor="middle" x="331" y="-127.6" font-family="Times,serif" font-size="14.00">TchatroomsModule</text>
</g>
<!-- FormTchatroomsComponent&#45;&gt;TchatroomsModule -->
<g id="edge1" class="edge">
<title>FormTchatroomsComponent&#45;&gt;TchatroomsModule</title>
<path fill="none" stroke="black" d="M487.76,-84.91C487.76,-104.14 487.76,-131.8 487.76,-131.8 487.76,-131.8 404.31,-131.8 404.31,-131.8"/>
<polygon fill="black" stroke="black" points="404.31,-128.3 394.31,-131.8 404.31,-135.3 404.31,-128.3"/>
</g>
<!-- PageAddTchatroomComponent -->
<g id="node2" class="node">
<title>PageAddTchatroomComponent</title>
<polygon fill="#ffffb3" stroke="black" points="428.08,-84.8 233.92,-84.8 233.92,-48.8 428.08,-48.8 428.08,-84.8"/>
<text text-anchor="middle" x="331" y="-62.6" font-family="Times,serif" font-size="14.00">PageAddTchatroomComponent</text>
</g>
<!-- PageAddTchatroomComponent&#45;&gt;TchatroomsModule -->
<g id="edge2" class="edge">
<title>PageAddTchatroomComponent&#45;&gt;TchatroomsModule</title>
<path fill="none" stroke="black" d="M331,-84.91C331,-84.91 331,-103.79 331,-103.79"/>
<polygon fill="black" stroke="black" points="327.5,-103.79 331,-113.79 334.5,-103.79 327.5,-103.79"/>
</g>
<!-- PageListTchatroomComponent -->
<g id="node3" class="node">
<title>PageListTchatroomComponent</title>
<polygon fill="#ffffb3" stroke="black" points="215.75,-84.8 24.25,-84.8 24.25,-48.8 215.75,-48.8 215.75,-84.8"/>
<text text-anchor="middle" x="120" y="-62.6" font-family="Times,serif" font-size="14.00">PageListTchatroomComponent</text>
</g>
<!-- PageListTchatroomComponent&#45;&gt;TchatroomsModule -->
<g id="edge3" class="edge">
<title>PageListTchatroomComponent&#45;&gt;TchatroomsModule</title>
<path fill="none" stroke="black" d="M167.62,-84.91C167.62,-104.14 167.62,-131.8 167.62,-131.8 167.62,-131.8 257.37,-131.8 257.37,-131.8"/>
<polygon fill="black" stroke="black" points="257.37,-135.3 267.37,-131.8 257.37,-128.3 257.37,-135.3"/>
</g>
<!-- PageAddTchatroomComponent  -->
<g id="node5" class="node">
<title>PageAddTchatroomComponent </title>
<polygon fill="#fb8072" stroke="black" points="529.58,-214.8 332.42,-214.8 332.42,-178.8 529.58,-178.8 529.58,-214.8"/>
<text text-anchor="middle" x="431" y="-192.6" font-family="Times,serif" font-size="14.00">PageAddTchatroomComponent </text>
</g>
<!-- TchatroomsModule&#45;&gt;PageAddTchatroomComponent  -->
<g id="edge4" class="edge">
<title>TchatroomsModule&#45;&gt;PageAddTchatroomComponent </title>
<path fill="none" stroke="black" stroke-dasharray="5,2" d="M363.21,-149.91C363.21,-149.91 363.21,-168.79 363.21,-168.79"/>
<polygon fill="black" stroke="black" points="359.71,-168.79 363.21,-178.79 366.71,-168.79 359.71,-168.79"/>
</g>
<!-- PageListTchatroomComponent  -->
<g id="node6" class="node">
<title>PageListTchatroomComponent </title>
<polygon fill="#fb8072" stroke="black" points="314.75,-214.8 119.25,-214.8 119.25,-178.8 314.75,-178.8 314.75,-214.8"/>
<text text-anchor="middle" x="217" y="-192.6" font-family="Times,serif" font-size="14.00">PageListTchatroomComponent </text>
</g>
<!-- TchatroomsModule&#45;&gt;PageListTchatroomComponent  -->
<g id="edge5" class="edge">
<title>TchatroomsModule&#45;&gt;PageListTchatroomComponent </title>
<path fill="none" stroke="black" stroke-dasharray="5,2" d="M291.21,-149.91C291.21,-149.91 291.21,-168.79 291.21,-168.79"/>
<polygon fill="black" stroke="black" points="287.71,-168.79 291.21,-178.79 294.71,-168.79 287.71,-168.79"/>
</g>
</g>
</svg>
