<?xml version="1.0" encoding="UTF-8" standalone="no"?>
<!DOCTYPE svg PUBLIC "-//W3C//DTD SVG 1.1//EN"
 "http://www.w3.org/Graphics/SVG/1.1/DTD/svg11.dtd">
<!-- Generated by graphviz version 5.0.0 (20220707.1540)
 -->
<!-- Title: dependencies Pages: 1 -->
<svg width="3417pt" height="261pt"
 viewBox="0.00 0.00 3417.00 260.80" xmlns="http://www.w3.org/2000/svg" xmlns:xlink="http://www.w3.org/1999/xlink">
<g id="graph0" class="graph" transform="scale(1 1) rotate(0) translate(4 256.8)">
<title>dependencies</title>
<polygon fill="white" stroke="transparent" points="-4,4 -4,-256.8 3413,-256.8 3413,4 -4,4"/>
<text text-anchor="middle" x="1704.5" y="-8.2" font-family="sans-serif" font-size="14.00">dependencies</text>
<g id="clust1" class="cluster">
<title>cluster_AppModule</title>
<polygon fill="none" stroke="black" stroke-dasharray="1,5" points="8,-32.8 8,-244.8 564,-244.8 564,-32.8 8,-32.8"/>
</g>
<g id="clust2" class="cluster">
<title>cluster_AppModule_declarations</title>
<polygon fill="none" stroke="black" points="16,-40.8 16,-92.8 299,-92.8 299,-40.8 16,-40.8"/>
</g>
<g id="clust5" class="cluster">
<title>cluster_AppModule_imports</title>
<polygon fill="none" stroke="black" points="307,-40.8 307,-92.8 556,-92.8 556,-40.8 307,-40.8"/>
</g>
<g id="clust7" class="cluster">
<title>cluster_AppModule_bootstrap</title>
<polygon fill="none" stroke="black" points="246,-184.8 246,-236.8 370,-236.8 370,-184.8 246,-184.8"/>
</g>
<g id="clust15" class="cluster">
<title>cluster_CoreModule</title>
<polygon fill="none" stroke="black" stroke-dasharray="1,5" points="572,-108.8 572,-176.8 2208,-176.8 2208,-108.8 572,-108.8"/>
</g>
<g id="clust16" class="cluster">
<title>cluster_CoreModule_declarations</title>
<polygon fill="none" stroke="black" points="1476,-116.8 1476,-168.8 2050,-168.8 2050,-116.8 1476,-116.8"/>
</g>
<g id="clust21" class="cluster">
<title>cluster_CoreModule_imports</title>
<polygon fill="none" stroke="black" points="2058,-116.8 2058,-168.8 2200,-168.8 2200,-116.8 2058,-116.8"/>
</g>
<g id="clust22" class="cluster">
<title>cluster_CoreModule_exports</title>
<polygon fill="none" stroke="black" points="580,-116.8 580,-168.8 1468,-168.8 1468,-116.8 580,-116.8"/>
</g>
<g id="clust31" class="cluster">
<title>cluster_MessagesModule</title>
<polygon fill="none" stroke="black" stroke-dasharray="1,5" points="2657,-32.8 2657,-244.8 3057,-244.8 3057,-32.8 2657,-32.8"/>
</g>
<g id="clust32" class="cluster">
<title>cluster_MessagesModule_declarations</title>
<polygon fill="none" stroke="black" points="2849,-40.8 2849,-92.8 3049,-92.8 3049,-40.8 2849,-40.8"/>
</g>
<g id="clust34" class="cluster">
<title>cluster_MessagesModule_imports</title>
<polygon fill="none" stroke="black" points="2665,-40.8 2665,-92.8 2841,-92.8 2841,-40.8 2665,-40.8"/>
</g>
<g id="clust35" class="cluster">
<title>cluster_MessagesModule_exports</title>
<polygon fill="none" stroke="black" points="2755,-184.8 2755,-236.8 2959,-236.8 2959,-184.8 2755,-184.8"/>
</g>
<g id="clust50" class="cluster">
<title>cluster_PageNotFoundModule</title>
<polygon fill="none" stroke="black" stroke-dasharray="1,5" points="3065,-32.8 3065,-168.8 3263,-168.8 3263,-32.8 3065,-32.8"/>
</g>
<g id="clust51" class="cluster">
<title>cluster_PageNotFoundModule_declarations</title>
<polygon fill="none" stroke="black" points="3073,-40.8 3073,-92.8 3255,-92.8 3255,-40.8 3073,-40.8"/>
</g>
<g id="clust57" class="cluster">
<title>cluster_TchatroomsModule</title>
<polygon fill="none" stroke="black" stroke-dasharray="1,5" points="1582,-32.8 1582,-100.8 2649,-100.8 2649,-32.8 1582,-32.8"/>
</g>
<g id="clust58" class="cluster">
<title>cluster_TchatroomsModule_declarations</title>
<polygon fill="none" stroke="black" points="2025,-40.8 2025,-92.8 2641,-92.8 2641,-40.8 2025,-40.8"/>
</g>
<g id="clust63" class="cluster">
<title>cluster_TchatroomsModule_exports</title>
<polygon fill="none" stroke="black" points="1590,-40.8 1590,-92.8 2017,-92.8 2017,-40.8 1590,-40.8"/>
</g>
<g id="clust72" class="cluster">
<title>cluster_UiModule</title>
<polygon fill="none" stroke="black" stroke-dasharray="1,5" points="3271,-32.8 3271,-244.8 3401,-244.8 3401,-32.8 3271,-32.8"/>
</g>
<g id="clust73" class="cluster">
<title>cluster_UiModule_declarations</title>
<polygon fill="none" stroke="black" points="3280,-40.8 3280,-92.8 3392,-92.8 3392,-40.8 3280,-40.8"/>
</g>
<g id="clust76" class="cluster">
<title>cluster_UiModule_exports</title>
<polygon fill="none" stroke="black" points="3279,-184.8 3279,-236.8 3393,-236.8 3393,-184.8 3279,-184.8"/>
</g>
<!-- AppComponent -->
<g id="node1" class="node">
<title>AppComponent</title>
<polygon fill="#ffffb3" stroke="black" points="290.94,-84.8 185.06,-84.8 185.06,-48.8 290.94,-48.8 290.94,-84.8"/>
<text text-anchor="middle" x="238" y="-62.6" font-family="Times,serif" font-size="14.00">AppComponent</text>
</g>
<!-- AppModule -->
<g id="node3" class="node">
<title>AppModule</title>
<polygon fill="#8dd3c7" stroke="black" points="349.66,-160.8 346.66,-164.8 325.66,-164.8 322.66,-160.8 266.34,-160.8 266.34,-124.8 349.66,-124.8 349.66,-160.8"/>
<text text-anchor="middle" x="308" y="-138.6" font-family="Times,serif" font-size="14.00">AppModule</text>
</g>
<!-- AppComponent&#45;&gt;AppModule -->
<g id="edge1" class="edge">
<title>AppComponent&#45;&gt;AppModule</title>
<path fill="none" stroke="black" d="M278.44,-84.81C278.44,-84.81 278.44,-114.65 278.44,-114.65"/>
<polygon fill="black" stroke="black" points="274.94,-114.65 278.44,-124.65 281.94,-114.65 274.94,-114.65"/>
</g>
<!-- TableLightComponent -->
<g id="node2" class="node">
<title>TableLightComponent</title>
<polygon fill="#ffffb3" stroke="black" points="167.53,-84.8 24.47,-84.8 24.47,-48.8 167.53,-48.8 167.53,-84.8"/>
<text text-anchor="middle" x="96" y="-62.6" font-family="Times,serif" font-size="14.00">TableLightComponent</text>
</g>
<!-- TableLightComponent&#45;&gt;AppModule -->
<g id="edge2" class="edge">
<title>TableLightComponent&#45;&gt;AppModule</title>
<path fill="none" stroke="black" d="M96,-84.81C96,-107.29 96,-142.8 96,-142.8 96,-142.8 256.12,-142.8 256.12,-142.8"/>
<polygon fill="black" stroke="black" points="256.12,-146.3 266.12,-142.8 256.12,-139.3 256.12,-146.3"/>
</g>
<!-- AppComponent  -->
<g id="node6" class="node">
<title>AppComponent </title>
<polygon fill="#80b1d3" stroke="black" points="362.44,-228.8 253.56,-228.8 253.56,-192.8 362.44,-192.8 362.44,-228.8"/>
<text text-anchor="middle" x="308" y="-206.6" font-family="Times,serif" font-size="14.00">AppComponent </text>
</g>
<!-- AppModule&#45;&gt;AppComponent  -->
<g id="edge5" class="edge">
<title>AppModule&#45;&gt;AppComponent </title>
<path fill="none" stroke="black" stroke-dasharray="1,5" d="M308,-161.02C308,-161.02 308,-182.53 308,-182.53"/>
<polygon fill="black" stroke="black" points="304.5,-182.53 308,-192.53 311.5,-182.53 304.5,-182.53"/>
</g>
<!-- AppRoutingModule -->
<g id="node4" class="node">
<title>AppRoutingModule</title>
<polygon fill="#8dd3c7" stroke="black" points="443.28,-84.8 440.28,-88.8 419.28,-88.8 416.28,-84.8 314.72,-84.8 314.72,-48.8 443.28,-48.8 443.28,-84.8"/>
<text text-anchor="middle" x="379" y="-62.6" font-family="Times,serif" font-size="14.00">AppRoutingModule</text>
</g>
<!-- AppRoutingModule&#45;&gt;AppModule -->
<g id="edge3" class="edge">
<title>AppRoutingModule&#45;&gt;AppModule</title>
<path fill="none" stroke="black" d="M332.22,-84.81C332.22,-84.81 332.22,-114.65 332.22,-114.65"/>
<polygon fill="black" stroke="black" points="328.72,-114.65 332.22,-124.65 335.72,-114.65 328.72,-114.65"/>
</g>
<!-- CoreModule -->
<g id="node5" class="node">
<title>CoreModule</title>
<polygon fill="#8dd3c7" stroke="black" points="548.27,-84.8 545.27,-88.8 524.27,-88.8 521.27,-84.8 461.73,-84.8 461.73,-48.8 548.27,-48.8 548.27,-84.8"/>
<text text-anchor="middle" x="505" y="-62.6" font-family="Times,serif" font-size="14.00">CoreModule</text>
</g>
<!-- CoreModule&#45;&gt;AppModule -->
<g id="edge4" class="edge">
<title>CoreModule&#45;&gt;AppModule</title>
<path fill="none" stroke="black" d="M531.03,-84.81C531.03,-107.29 531.03,-142.8 531.03,-142.8 531.03,-142.8 359.69,-142.8 359.69,-142.8"/>
<polygon fill="black" stroke="black" points="359.69,-139.3 349.69,-142.8 359.69,-146.3 359.69,-139.3"/>
</g>
<!-- FooterComponent  -->
<g id="node12" class="node">
<title>FooterComponent </title>
<polygon fill="#fb8072" stroke="black" points="1459.88,-160.8 1338.12,-160.8 1338.12,-124.8 1459.88,-124.8 1459.88,-160.8"/>
<text text-anchor="middle" x="1399" y="-138.6" font-family="Times,serif" font-size="14.00">FooterComponent </text>
</g>
<!-- CoreModule&#45;&gt;FooterComponent  -->
<g id="edge11" class="edge">
<title>CoreModule&#45;&gt;FooterComponent </title>
<path fill="none" stroke="black" stroke-dasharray="5,2" d="M548.42,-59.8C727.46,-59.8 1399,-59.8 1399,-59.8 1399,-59.8 1399,-114.79 1399,-114.79"/>
<polygon fill="black" stroke="black" points="1395.5,-114.79 1399,-124.79 1402.5,-114.79 1395.5,-114.79"/>
</g>
<!-- HeaderComponent  -->
<g id="node13" class="node">
<title>HeaderComponent </title>
<polygon fill="#fb8072" stroke="black" points="1320.75,-160.8 1195.25,-160.8 1195.25,-124.8 1320.75,-124.8 1320.75,-160.8"/>
<text text-anchor="middle" x="1258" y="-138.6" font-family="Times,serif" font-size="14.00">HeaderComponent </text>
</g>
<!-- CoreModule&#45;&gt;HeaderComponent  -->
<g id="edge12" class="edge">
<title>CoreModule&#45;&gt;HeaderComponent </title>
<path fill="none" stroke="black" stroke-dasharray="5,2" d="M548.46,-63.8C708.82,-63.8 1258,-63.8 1258,-63.8 1258,-63.8 1258,-114.48 1258,-114.48"/>
<polygon fill="black" stroke="black" points="1254.5,-114.48 1258,-124.48 1261.5,-114.48 1254.5,-114.48"/>
</g>
<!-- IconsModule  -->
<g id="node14" class="node">
<title>IconsModule </title>
<polygon fill="#fb8072" stroke="black" points="1177.88,-160.8 1084.12,-160.8 1084.12,-124.8 1177.88,-124.8 1177.88,-160.8"/>
<text text-anchor="middle" x="1131" y="-138.6" font-family="Times,serif" font-size="14.00">IconsModule </text>
</g>
<!-- CoreModule&#45;&gt;IconsModule  -->
<g id="edge13" class="edge">
<title>CoreModule&#45;&gt;IconsModule </title>
<path fill="none" stroke="black" stroke-dasharray="5,2" d="M548.52,-66.8C690.48,-66.8 1131,-66.8 1131,-66.8 1131,-66.8 1131,-114.79 1131,-114.79"/>
<polygon fill="black" stroke="black" points="1127.5,-114.79 1131,-124.79 1134.5,-114.79 1127.5,-114.79"/>
</g>
<!-- MessagesModule  -->
<g id="node15" class="node">
<title>MessagesModule </title>
<polygon fill="#fb8072" stroke="black" points="1066.99,-160.8 949.01,-160.8 949.01,-124.8 1066.99,-124.8 1066.99,-160.8"/>
<text text-anchor="middle" x="1008" y="-138.6" font-family="Times,serif" font-size="14.00">MessagesModule </text>
</g>
<!-- CoreModule&#45;&gt;MessagesModule  -->
<g id="edge14" class="edge">
<title>CoreModule&#45;&gt;MessagesModule </title>
<path fill="none" stroke="black" stroke-dasharray="5,2" d="M548.32,-70.8C670.33,-70.8 1008,-70.8 1008,-70.8 1008,-70.8 1008,-114.63 1008,-114.63"/>
<polygon fill="black" stroke="black" points="1004.5,-114.63 1008,-124.63 1011.5,-114.63 1004.5,-114.63"/>
</g>
<!-- NavComponent  -->
<g id="node16" class="node">
<title>NavComponent </title>
<polygon fill="#fb8072" stroke="black" points="931.16,-160.8 822.84,-160.8 822.84,-124.8 931.16,-124.8 931.16,-160.8"/>
<text text-anchor="middle" x="877" y="-138.6" font-family="Times,serif" font-size="14.00">NavComponent </text>
</g>
<!-- CoreModule&#45;&gt;NavComponent  -->
<g id="edge15" class="edge">
<title>CoreModule&#45;&gt;NavComponent </title>
<path fill="none" stroke="black" stroke-dasharray="5,2" d="M548.4,-74.8C646.53,-74.8 877,-74.8 877,-74.8 877,-74.8 877,-114.58 877,-114.58"/>
<polygon fill="black" stroke="black" points="873.5,-114.58 877,-124.58 880.5,-114.58 873.5,-114.58"/>
</g>
<!-- TemplatesModule  -->
<g id="node17" class="node">
<title>TemplatesModule </title>
<polygon fill="#fb8072" stroke="black" points="804.86,-160.8 683.14,-160.8 683.14,-124.8 804.86,-124.8 804.86,-160.8"/>
<text text-anchor="middle" x="744" y="-138.6" font-family="Times,serif" font-size="14.00">TemplatesModule </text>
</g>
<!-- CoreModule&#45;&gt;TemplatesModule  -->
<g id="edge16" class="edge">
<title>CoreModule&#45;&gt;TemplatesModule </title>
<path fill="none" stroke="black" stroke-dasharray="5,2" d="M548.28,-77.8C617.15,-77.8 744,-77.8 744,-77.8 744,-77.8 744,-114.69 744,-114.69"/>
<polygon fill="black" stroke="black" points="740.5,-114.69 744,-124.69 747.5,-114.69 740.5,-114.69"/>
</g>
<!-- UiModule  -->
<g id="node18" class="node">
<title>UiModule </title>
<polygon fill="#fb8072" stroke="black" points="665.55,-160.8 588.45,-160.8 588.45,-124.8 665.55,-124.8 665.55,-160.8"/>
<text text-anchor="middle" x="627" y="-138.6" font-family="Times,serif" font-size="14.00">UiModule </text>
</g>
<!-- CoreModule&#45;&gt;UiModule  -->
<g id="edge17" class="edge">
<title>CoreModule&#45;&gt;UiModule </title>
<path fill="none" stroke="black" stroke-dasharray="5,2" d="M548.36,-81.8C583.42,-81.8 627,-81.8 627,-81.8 627,-81.8 627,-114.5 627,-114.5"/>
<polygon fill="black" stroke="black" points="623.5,-114.5 627,-124.5 630.5,-114.5 623.5,-114.5"/>
</g>
<!-- FooterComponent -->
<g id="node7" class="node">
<title>FooterComponent</title>
<polygon fill="#ffffb3" stroke="black" points="2041.88,-160.8 1924.12,-160.8 1924.12,-124.8 2041.88,-124.8 2041.88,-160.8"/>
<text text-anchor="middle" x="1983" y="-138.6" font-family="Times,serif" font-size="14.00">FooterComponent</text>
</g>
<!-- FooterComponent&#45;&gt;CoreModule -->
<g id="edge6" class="edge">
<title>FooterComponent&#45;&gt;CoreModule</title>
<path fill="none" stroke="black" d="M1952.3,-124.77C1952.3,-117.95 1952.3,-111.8 1952.3,-111.8 1952.3,-111.8 496.32,-111.8 496.32,-111.8 496.32,-111.8 496.32,-94.84 496.32,-94.84"/>
<polygon fill="black" stroke="black" points="499.82,-94.84 496.32,-84.84 492.82,-94.84 499.82,-94.84"/>
</g>
<!-- FormMessageComponent -->
<g id="node8" class="node">
<title>FormMessageComponent</title>
<polygon fill="#ffffb3" stroke="black" points="1906.16,-160.8 1745.84,-160.8 1745.84,-124.8 1906.16,-124.8 1906.16,-160.8"/>
<text text-anchor="middle" x="1826" y="-138.6" font-family="Times,serif" font-size="14.00">FormMessageComponent</text>
</g>
<!-- FormMessageComponent&#45;&gt;CoreModule -->
<g id="edge7" class="edge">
<title>FormMessageComponent&#45;&gt;CoreModule</title>
<path fill="none" stroke="black" d="M1761.66,-124.61C1761.66,-121.26 1761.66,-118.8 1761.66,-118.8 1761.66,-118.8 478.97,-118.8 478.97,-118.8 478.97,-118.8 478.97,-94.99 478.97,-94.99"/>
<polygon fill="black" stroke="black" points="482.47,-94.99 478.97,-84.99 475.47,-94.99 482.47,-94.99"/>
</g>
<!-- HeaderComponent -->
<g id="node9" class="node">
<title>HeaderComponent</title>
<polygon fill="#ffffb3" stroke="black" points="1727.75,-160.8 1606.25,-160.8 1606.25,-124.8 1727.75,-124.8 1727.75,-160.8"/>
<text text-anchor="middle" x="1667" y="-138.6" font-family="Times,serif" font-size="14.00">HeaderComponent</text>
</g>
<!-- HeaderComponent&#45;&gt;CoreModule -->
<g id="edge8" class="edge">
<title>HeaderComponent&#45;&gt;CoreModule</title>
<path fill="none" stroke="black" d="M1606.18,-142.8C1598.55,-142.8 1593.35,-142.8 1593.35,-142.8 1593.35,-142.8 1593.35,-52.8 1593.35,-52.8 1593.35,-52.8 558.34,-52.8 558.34,-52.8"/>
<polygon fill="black" stroke="black" points="558.34,-49.3 548.34,-52.8 558.34,-56.3 558.34,-49.3"/>
</g>
<!-- NavComponent -->
<g id="node10" class="node">
<title>NavComponent</title>
<polygon fill="#ffffb3" stroke="black" points="1588.16,-160.8 1483.84,-160.8 1483.84,-124.8 1588.16,-124.8 1588.16,-160.8"/>
<text text-anchor="middle" x="1536" y="-138.6" font-family="Times,serif" font-size="14.00">NavComponent</text>
</g>
<!-- NavComponent&#45;&gt;CoreModule -->
<g id="edge9" class="edge">
<title>NavComponent&#45;&gt;CoreModule</title>
<path fill="none" stroke="black" d="M1536,-124.56C1536,-99.32 1536,-56.8 1536,-56.8 1536,-56.8 558.31,-56.8 558.31,-56.8"/>
<polygon fill="black" stroke="black" points="558.31,-53.3 548.31,-56.8 558.31,-60.3 558.31,-53.3"/>
</g>
<!-- TchatroomsModule -->
<g id="node11" class="node">
<title>TchatroomsModule</title>
<polygon fill="#8dd3c7" stroke="black" points="2192.42,-160.8 2189.42,-164.8 2168.42,-164.8 2165.42,-160.8 2065.58,-160.8 2065.58,-124.8 2192.42,-124.8 2192.42,-160.8"/>
<text text-anchor="middle" x="2129" y="-138.6" font-family="Times,serif" font-size="14.00">TchatroomsModule</text>
</g>
<!-- TchatroomsModule&#45;&gt;CoreModule -->
<g id="edge10" class="edge">
<title>TchatroomsModule&#45;&gt;CoreModule</title>
<path fill="none" stroke="black" d="M2091.07,-124.69C2091.07,-114.9 2091.07,-104.8 2091.07,-104.8 2091.07,-104.8 513.68,-104.8 513.68,-104.8 513.68,-104.8 513.68,-94.91 513.68,-94.91"/>
<polygon fill="black" stroke="black" points="517.18,-94.91 513.68,-84.91 510.18,-94.91 517.18,-94.91"/>
</g>
<!-- PageAddTchatroomComponent  -->
<g id="node28" class="node">
<title>PageAddTchatroomComponent </title>
<polygon fill="#fb8072" stroke="black" points="2008.58,-84.8 1811.42,-84.8 1811.42,-48.8 2008.58,-48.8 2008.58,-84.8"/>
<text text-anchor="middle" x="1910" y="-62.6" font-family="Times,serif" font-size="14.00">PageAddTchatroomComponent </text>
</g>
<!-- TchatroomsModule&#45;&gt;PageAddTchatroomComponent  -->
<g id="edge25" class="edge">
<title>TchatroomsModule&#45;&gt;PageAddTchatroomComponent </title>
<path fill="none" stroke="black" stroke-dasharray="5,2" d="M2141.64,-124.68C2141.64,-110.02 2141.64,-91.8 2141.64,-91.8 2141.64,-91.8 1980.54,-91.8 1980.54,-91.8 1980.54,-91.8 1980.54,-91.12 1980.54,-91.12"/>
<polygon fill="black" stroke="black" points="1984.05,-94.97 1980.54,-84.97 1977.05,-94.97 1984.05,-94.97"/>
</g>
<!-- PageListTchatroomComponent  -->
<g id="node29" class="node">
<title>PageListTchatroomComponent </title>
<polygon fill="#fb8072" stroke="black" points="1793.75,-84.8 1598.25,-84.8 1598.25,-48.8 1793.75,-48.8 1793.75,-84.8"/>
<text text-anchor="middle" x="1696" y="-62.6" font-family="Times,serif" font-size="14.00">PageListTchatroomComponent </text>
</g>
<!-- TchatroomsModule&#45;&gt;PageListTchatroomComponent  -->
<g id="edge26" class="edge">
<title>TchatroomsModule&#45;&gt;PageListTchatroomComponent </title>
<path fill="none" stroke="black" stroke-dasharray="5,2" d="M2116.36,-124.65C2116.36,-112.53 2116.36,-98.8 2116.36,-98.8 2116.36,-98.8 1777.64,-98.8 1777.64,-98.8 1777.64,-98.8 1777.64,-95.04 1777.64,-95.04"/>
<polygon fill="black" stroke="black" points="1781.14,-95.04 1777.64,-85.04 1774.14,-95.04 1781.14,-95.04"/>
</g>
<!-- PageListMessagesComponent -->
<g id="node19" class="node">
<title>PageListMessagesComponent</title>
<polygon fill="#ffffb3" stroke="black" points="3041.26,-84.8 2856.74,-84.8 2856.74,-48.8 3041.26,-48.8 3041.26,-84.8"/>
<text text-anchor="middle" x="2949" y="-62.6" font-family="Times,serif" font-size="14.00">PageListMessagesComponent</text>
</g>
<!-- MessagesModule -->
<g id="node20" class="node">
<title>MessagesModule</title>
<polygon fill="#8dd3c7" stroke="black" points="2913.99,-160.8 2910.99,-164.8 2889.99,-164.8 2886.99,-160.8 2800.01,-160.8 2800.01,-124.8 2913.99,-124.8 2913.99,-160.8"/>
<text text-anchor="middle" x="2857" y="-138.6" font-family="Times,serif" font-size="14.00">MessagesModule</text>
</g>
<!-- PageListMessagesComponent&#45;&gt;MessagesModule -->
<g id="edge18" class="edge">
<title>PageListMessagesComponent&#45;&gt;MessagesModule</title>
<path fill="none" stroke="black" d="M2885.31,-84.81C2885.31,-84.81 2885.31,-114.65 2885.31,-114.65"/>
<polygon fill="black" stroke="black" points="2881.81,-114.65 2885.31,-124.65 2888.81,-114.65 2881.81,-114.65"/>
</g>
<!-- PageListMessagesComponent  -->
<g id="node22" class="node">
<title>PageListMessagesComponent </title>
<polygon fill="#fb8072" stroke="black" points="2951.26,-228.8 2762.74,-228.8 2762.74,-192.8 2951.26,-192.8 2951.26,-228.8"/>
<text text-anchor="middle" x="2857" y="-206.6" font-family="Times,serif" font-size="14.00">PageListMessagesComponent </text>
</g>
<!-- MessagesModule&#45;&gt;PageListMessagesComponent  -->
<g id="edge20" class="edge">
<title>MessagesModule&#45;&gt;PageListMessagesComponent </title>
<path fill="none" stroke="black" stroke-dasharray="5,2" d="M2857,-161.02C2857,-161.02 2857,-182.53 2857,-182.53"/>
<polygon fill="black" stroke="black" points="2853.5,-182.53 2857,-192.53 2860.5,-182.53 2853.5,-182.53"/>
</g>
<!-- MessagesRoutingModule -->
<g id="node21" class="node">
<title>MessagesRoutingModule</title>
<polygon fill="#8dd3c7" stroke="black" points="2832.6,-84.8 2829.6,-88.8 2808.6,-88.8 2805.6,-84.8 2673.4,-84.8 2673.4,-48.8 2832.6,-48.8 2832.6,-84.8"/>
<text text-anchor="middle" x="2753" y="-62.6" font-family="Times,serif" font-size="14.00">MessagesRoutingModule</text>
</g>
<!-- MessagesRoutingModule&#45;&gt;MessagesModule -->
<g id="edge19" class="edge">
<title>MessagesRoutingModule&#45;&gt;MessagesModule</title>
<path fill="none" stroke="black" d="M2816.28,-84.81C2816.28,-84.81 2816.28,-114.65 2816.28,-114.65"/>
<polygon fill="black" stroke="black" points="2812.78,-114.65 2816.28,-124.65 2819.78,-114.65 2812.78,-114.65"/>
</g>
<!-- PageNotFoundComponent -->
<g id="node23" class="node">
<title>PageNotFoundComponent</title>
<polygon fill="#ffffb3" stroke="black" points="3246.83,-84.8 3081.17,-84.8 3081.17,-48.8 3246.83,-48.8 3246.83,-84.8"/>
<text text-anchor="middle" x="3164" y="-62.6" font-family="Times,serif" font-size="14.00">PageNotFoundComponent</text>
</g>
<!-- PageNotFoundModule -->
<g id="node24" class="node">
<title>PageNotFoundModule</title>
<polygon fill="#8dd3c7" stroke="black" points="3235.55,-160.8 3232.55,-164.8 3211.55,-164.8 3208.55,-160.8 3092.45,-160.8 3092.45,-124.8 3235.55,-124.8 3235.55,-160.8"/>
<text text-anchor="middle" x="3164" y="-138.6" font-family="Times,serif" font-size="14.00">PageNotFoundModule</text>
</g>
<!-- PageNotFoundComponent&#45;&gt;PageNotFoundModule -->
<g id="edge21" class="edge">
<title>PageNotFoundComponent&#45;&gt;PageNotFoundModule</title>
<path fill="none" stroke="black" d="M3164,-84.81C3164,-84.81 3164,-114.65 3164,-114.65"/>
<polygon fill="black" stroke="black" points="3160.5,-114.65 3164,-124.65 3167.5,-114.65 3160.5,-114.65"/>
</g>
<!-- FormTchatroomsComponent -->
<g id="node25" class="node">
<title>FormTchatroomsComponent</title>
<polygon fill="#ffffb3" stroke="black" points="2633.04,-84.8 2454.96,-84.8 2454.96,-48.8 2633.04,-48.8 2633.04,-84.8"/>
<text text-anchor="middle" x="2544" y="-62.6" font-family="Times,serif" font-size="14.00">FormTchatroomsComponent</text>
</g>
<!-- FormTchatroomsComponent&#45;&gt;TchatroomsModule -->
<g id="edge22" class="edge">
<title>FormTchatroomsComponent&#45;&gt;TchatroomsModule</title>
<path fill="none" stroke="black" d="M2544,-85C2544,-109.16 2544,-148.8 2544,-148.8 2544,-148.8 2202.48,-148.8 2202.48,-148.8"/>
<polygon fill="black" stroke="black" points="2202.48,-145.3 2192.48,-148.8 2202.48,-152.3 2202.48,-145.3"/>
</g>
<!-- PageAddTchatroomComponent -->
<g id="node26" class="node">
<title>PageAddTchatroomComponent</title>
<polygon fill="#ffffb3" stroke="black" points="2437.08,-84.8 2242.92,-84.8 2242.92,-48.8 2437.08,-48.8 2437.08,-84.8"/>
<text text-anchor="middle" x="2340" y="-62.6" font-family="Times,serif" font-size="14.00">PageAddTchatroomComponent</text>
</g>
<!-- PageAddTchatroomComponent&#45;&gt;TchatroomsModule -->
<g id="edge23" class="edge">
<title>PageAddTchatroomComponent&#45;&gt;TchatroomsModule</title>
<path fill="none" stroke="black" d="M2340,-84.83C2340,-105.57 2340,-136.8 2340,-136.8 2340,-136.8 2202.31,-136.8 2202.31,-136.8"/>
<polygon fill="black" stroke="black" points="2202.31,-133.3 2192.31,-136.8 2202.31,-140.3 2202.31,-133.3"/>
</g>
<!-- PageListTchatroomComponent -->
<g id="node27" class="node">
<title>PageListTchatroomComponent</title>
<polygon fill="#ffffb3" stroke="black" points="2224.75,-84.8 2033.25,-84.8 2033.25,-48.8 2224.75,-48.8 2224.75,-84.8"/>
<text text-anchor="middle" x="2129" y="-62.6" font-family="Times,serif" font-size="14.00">PageListTchatroomComponent</text>
</g>
<!-- PageListTchatroomComponent&#45;&gt;TchatroomsModule -->
<g id="edge24" class="edge">
<title>PageListTchatroomComponent&#45;&gt;TchatroomsModule</title>
<path fill="none" stroke="black" d="M2166.93,-84.81C2166.93,-84.81 2166.93,-114.65 2166.93,-114.65"/>
<polygon fill="black" stroke="black" points="2163.43,-114.65 2166.93,-124.65 2170.43,-114.65 2163.43,-114.65"/>
</g>
<!-- UiComponent -->
<g id="node30" class="node">
<title>UiComponent</title>
<polygon fill="#ffffb3" stroke="black" points="3383.83,-84.8 3288.17,-84.8 3288.17,-48.8 3383.83,-48.8 3383.83,-84.8"/>
<text text-anchor="middle" x="3336" y="-62.6" font-family="Times,serif" font-size="14.00">UiComponent</text>
</g>
<!-- UiModule -->
<g id="node31" class="node">
<title>UiModule</title>
<polygon fill="#8dd3c7" stroke="black" points="3372.55,-160.8 3369.55,-164.8 3348.55,-164.8 3345.55,-160.8 3299.45,-160.8 3299.45,-124.8 3372.55,-124.8 3372.55,-160.8"/>
<text text-anchor="middle" x="3336" y="-138.6" font-family="Times,serif" font-size="14.00">UiModule</text>
</g>
<!-- UiComponent&#45;&gt;UiModule -->
<g id="edge27" class="edge">
<title>UiComponent&#45;&gt;UiModule</title>
<path fill="none" stroke="black" d="M3336,-84.81C3336,-84.81 3336,-114.65 3336,-114.65"/>
<polygon fill="black" stroke="black" points="3332.5,-114.65 3336,-124.65 3339.5,-114.65 3332.5,-114.65"/>
</g>
<!-- UiComponent  -->
<g id="node32" class="node">
<title>UiComponent </title>
<polygon fill="#fb8072" stroke="black" points="3385.33,-228.8 3286.67,-228.8 3286.67,-192.8 3385.33,-192.8 3385.33,-228.8"/>
<text text-anchor="middle" x="3336" y="-206.6" font-family="Times,serif" font-size="14.00">UiComponent </text>
</g>
<!-- UiModule&#45;&gt;UiComponent  -->
<g id="edge28" class="edge">
<title>UiModule&#45;&gt;UiComponent </title>
<path fill="none" stroke="black" stroke-dasharray="5,2" d="M3336,-161.02C3336,-161.02 3336,-182.53 3336,-182.53"/>
<polygon fill="black" stroke="black" points="3332.5,-182.53 3336,-192.53 3339.5,-182.53 3332.5,-182.53"/>
</g>
</g>
</svg>
